# xmcd
#
# Track frame offsets:
#	150
#	13572
#	23867
#	33495
#	42405
#	53877
#	64805
#	77357
#	90480
#	102510
#	111585
#	121465
#	132862
#	143110
#	154515
#	164240
#	173330
#	182612
#	193315
#	204882
#	217970
#	228645
#	242560
#	254760
#	263792
#	277530
#	287752
#	300065
#	311120
#	322940
#	333062
#	341910
#
# Disc length: 4700 seconds
#
# Revision: 1
# Processed by: cddbd v1.5PL3 Copyright (c) Steve Scherf et al.
# Submitted via: audiograbber 1.80
#
DISCID=c1125a20
DTITLE=blackwood brothers - Rock-A-My-Soul disc 2
DYEAR=1900
DGENRE=
TTITLE0=How About Your Heart 
TTITLE1=The Workshop Of The Lord 
TTITLE2=I Don't Care What The World May Do 
TTITLE3=Take A Look In The Book 
TTITLE4=Dear Lord, Remember Me 
TTITLE5=Live Right, Die Right 
TTITLE6=Led By The Master's Hand 
TTITLE7=Christ Is A Wonderful Saviour 
TTITLE8=Will Heaven Be Heaven Without You 
TTITLE9=Church Twice On Sunday 
TTITLE10=What A Morning 
TTITLE11=The Lord Is A Busy Man 
TTITLE12=The Soul Spangled Banner 
TTITLE13=I Saw A Man
TTITLE14=Inside The Gate 
TTITLE15=Bowed On My Knees And Cried Holy 
TTITLE16=Heavenly Love 
TTITLE17=I Just Can't Make It By Myself 
TTITLE18=I Don't Mind 
TTITLE19=I Wanta Go There 
TTITLE20=The Kind And I Walk Hand In Hand 
TTITLE21=He Knows Just What I Need 
TTITLE22=Stop And Pray 
TTITLE23=Wonderful Savior 
TTITLE24=Suppertime 
TTITLE25=Something Old, Something New 
TTITLE26=My Saving King 
TTITLE27=Wonderful 
TTITLE28=I've Heard About A City 
TTITLE29=If I Pray 
TTITLE30=The Good Book 
TTITLE31=Give Us This Day 
EXTD=
EXTT0=
EXTT1=
EXTT2=
EXTT3=
EXTT4=
EXTT5=
EXTT6=
EXTT7=
EXTT8=
EXTT9=
EXTT10=
EXTT11=
EXTT12=
EXTT13=
EXTT14=
EXTT15=
EXTT16=
EXTT17=
EXTT18=
EXTT19=
EXTT20=
EXTT21=
EXTT22=
EXTT23=
EXTT24=
EXTT25=
EXTT26=
EXTT27=
EXTT28=
EXTT29=
EXTT30=
EXTT31=
PLAYORDER=
